<svg xmlns="http://www.w3.org/2000/svg" viewBox="0 0 1600 1200" role="img" aria-labelledby="title desc">
  <title id="title">Nursing team in clinical environment</title>
  <desc id="desc">Clean illustration with professionals in white uniforms and medical elements.</desc>
  <defs>
    <linearGradient id="bg" x1="0" y1="0" x2="1" y2="1">
      <stop offset="0%" stop-color="#e8f6f7"/>
      <stop offset="100%" stop-color="#f9fdfd"/>
    </linearGradient>
    <linearGradient id="floor" x1="0" y1="0" x2="0" y2="1">
      <stop offset="0%" stop-color="#d7ecef"/>
      <stop offset="100%" stop-color="#c8e1e4"/>
    </linearGradient>
  </defs>
  <rect width="1600" height="1200" fill="url(#bg)"/>
  <ellipse cx="820" cy="980" rx="630" ry="120" fill="#c4dde1" opacity="0.5"/>
  <rect x="0" y="860" width="1600" height="340" fill="url(#floor)"/>
  <rect x="190" y="210" width="1220" height="600" rx="40" fill="#ffffff" opacity="0.92"/>
  <rect x="260" y="280" width="360" height="210" rx="24" fill="#dff1f3"/>
  <rect x="670" y="280" width="670" height="60" rx="14" fill="#ecf7f8"/>
  <rect x="670" y="370" width="560" height="40" rx="10" fill="#ecf7f8"/>
  <rect x="670" y="440" width="500" height="40" rx="10" fill="#ecf7f8"/>
  <circle cx="790" cy="700" r="145" fill="#ffffff"/>
  <rect x="680" y="700" width="220" height="210" rx="28" fill="#ffffff"/>
  <rect x="742" y="730" width="95" height="170" rx="18" fill="#f0fafb"/>
  <rect x="764" y="775" width="52" height="80" rx="8" fill="#0f7f86" opacity="0.9"/>
  <rect x="782" y="756" width="16" height="118" rx="6" fill="#f3d487"/>
  <rect x="749" y="807" width="83" height="16" rx="6" fill="#f3d487"/>
  <circle cx="540" cy="730" r="125" fill="#ffffff"/>
  <rect x="450" y="730" width="180" height="190" rx="24" fill="#ffffff"/>
  <rect x="500" y="760" width="80" height="155" rx="16" fill="#f0fafb"/>
  <circle cx="1080" cy="730" r="125" fill="#ffffff"/>
  <rect x="990" y="730" width="180" height="190" rx="24" fill="#ffffff"/>
  <rect x="1040" y="760" width="80" height="155" rx="16" fill="#f0fafb"/>
  <path d="M1010 780c45 30 95 30 140 0" fill="none" stroke="#0f7f86" stroke-width="18" stroke-linecap="round"/>
  <path d="M460 790c40 28 88 28 128 0" fill="none" stroke="#0f7f86" stroke-width="16" stroke-linecap="round" opacity="0.85"/>
  <rect x="1260" y="620" width="180" height="210" rx="24" fill="#ffffff"/>
  <rect x="1325" y="680" width="50" height="90" rx="8" fill="#0f7f86"/>
  <rect x="1341" y="656" width="18" height="140" rx="6" fill="#f3d487"/>
  <rect x="1304" y="708" width="92" height="16" rx="6" fill="#f3d487"/>
</svg>
