<svg xmlns="http://www.w3.org/2000/svg" viewBox="0 0 1600 1000" role="img" aria-labelledby="title desc">
  <title id="title">Nurses on shift</title>
  <desc id="desc">Clean scene with two nurses in white uniforms and hospital panel.</desc>
  <defs>
    <linearGradient id="bg" x1="0" y1="0" x2="1" y2="1">
      <stop offset="0%" stop-color="#edf8f9"/>
      <stop offset="100%" stop-color="#f9fcfd"/>
    </linearGradient>
  </defs>
  <rect width="1600" height="1000" fill="url(#bg)"/>
  <rect x="130" y="120" width="1340" height="760" rx="48" fill="#ffffff" opacity="0.96"/>
  <rect x="220" y="220" width="1160" height="220" rx="28" fill="#eef8f9"/>
  <rect x="270" y="274" width="420" height="32" rx="10" fill="#d7ecef"/>
  <rect x="270" y="332" width="360" height="24" rx="10" fill="#d7ecef"/>
  <circle cx="640" cy="640" r="108" fill="#ffffff"/>
  <rect x="565" y="640" width="150" height="218" rx="24" fill="#ffffff"/>
  <rect x="600" y="680" width="80" height="164" rx="16" fill="#f0fafb"/>
  <rect x="625" y="710" width="30" height="102" rx="8" fill="#0f7f86"/>
  <rect x="780" y="640" width="210" height="28" rx="14" fill="#d5eaee"/>
  <circle cx="1020" cy="640" r="108" fill="#ffffff"/>
  <rect x="945" y="640" width="150" height="218" rx="24" fill="#ffffff"/>
  <rect x="980" y="680" width="80" height="164" rx="16" fill="#f0fafb"/>
  <rect x="804" y="700" width="26" height="62" rx="10" fill="#9cc8cd"/>
  <rect x="934" y="700" width="26" height="62" rx="10" fill="#9cc8cd"/>
  <rect x="1180" y="510" width="170" height="220" rx="22" fill="#ffffff"/>
  <rect x="1243" y="572" width="44" height="94" rx="8" fill="#0f7f86"/>
  <rect x="1258" y="554" width="14" height="130" rx="4" fill="#f3d487"/>
  <rect x="1226" y="612" width="78" height="14" rx="4" fill="#f3d487"/>
</svg>
