<svg xmlns="http://www.w3.org/2000/svg" viewBox="0 0 1600 1000" role="img" aria-labelledby="title desc">
  <title id="title">Stethoscope and clinical tools</title>
  <desc id="desc">Clean composition with stethoscope, gloves and notes over light background.</desc>
  <defs>
    <linearGradient id="bg" x1="0" y1="0" x2="1" y2="1">
      <stop offset="0%" stop-color="#eef8f9"/>
      <stop offset="100%" stop-color="#f9fcfc"/>
    </linearGradient>
  </defs>
  <rect width="1600" height="1000" fill="url(#bg)"/>
  <rect x="180" y="120" width="1240" height="760" rx="48" fill="#ffffff" opacity="0.95"/>
  <rect x="310" y="220" width="520" height="600" rx="30" fill="#f3fbfb"/>
  <rect x="360" y="280" width="420" height="28" rx="10" fill="#d7ecef"/>
  <rect x="360" y="340" width="370" height="24" rx="10" fill="#d7ecef"/>
  <rect x="360" y="392" width="390" height="24" rx="10" fill="#d7ecef"/>
  <rect x="360" y="444" width="300" height="24" rx="10" fill="#d7ecef"/>
  <path d="M1110 310c0 210-240 170-240 310 0 92 76 168 170 168s170-76 170-168c0-30-8-58-21-82" fill="none" stroke="#0f7f86" stroke-width="28" stroke-linecap="round"/>
  <circle cx="1186" cy="315" r="56" fill="#0f7f86"/>
  <circle cx="1186" cy="315" r="25" fill="#f3d487"/>
  <circle cx="1039" cy="708" r="67" fill="#0f7f86"/>
  <circle cx="1039" cy="708" r="34" fill="#f3d487"/>
  <rect x="960" y="240" width="52" height="120" rx="20" fill="#0f7f86"/>
  <rect x="1060" y="220" width="52" height="140" rx="20" fill="#0f7f86"/>
  <rect x="1128" y="580" width="230" height="170" rx="24" fill="#ffffff"/>
  <rect x="1223" y="620" width="42" height="88" rx="6" fill="#0f7f86"/>
  <rect x="1237" y="600" width="14" height="128" rx="4" fill="#f3d487"/>
  <rect x="1204" y="638" width="80" height="14" rx="4" fill="#f3d487"/>
  <path d="M610 650c20-35 60-64 92-64 33 0 57 25 57 55 0 25-14 41-28 57" fill="none" stroke="#9dc7cd" stroke-width="16" stroke-linecap="round"/>
  <path d="M452 678c15-30 44-52 76-52 30 0 50 20 50 47 0 18-8 32-22 45" fill="none" stroke="#9dc7cd" stroke-width="14" stroke-linecap="round"/>
</svg>
